HIERARCHY
ROOT Hips
{
	OFFSET -3.958830 18.904000 13.208200
	CHANNELS 6 Xposition Yposition Zposition Zrotation Yrotation Xrotation 
	JOINT LHipJoint
	{
		OFFSET 0.000000 0.000000 0.000000
		CHANNELS 3 Zrotation Yrotation Xrotation
		JOINT LeftUpLeg
		{
			OFFSET 1.800000 -1.400000 0.085000
			CHANNELS 3 Zrotation Yrotation Xrotation
			JOINT LeftLeg
			{
				OFFSET 2.215000 -6.000000 0.000000
				CHANNELS 3 Zrotation Yrotation Xrotation
				JOINT LeftFoot
				{
					OFFSET 2.500000 -6.900000 0.000000
					CHANNELS 3 Zrotation Yrotation Xrotation
					JOINT LeftToeBase
					{
						OFFSET 0.200000 -0.500000 1.950000
						CHANNELS 3 Zrotation Yrotation Xrotation
						End Site
						{
							OFFSET 0.000000 0.000000 0.000000
						}
					}
				}
			}
		}
	}
	JOINT RHipJoint
	{
		OFFSET 0.000000 0.000000 0.000000
		CHANNELS 3 Zrotation Yrotation Xrotation
		JOINT RightUpLeg
		{
			OFFSET -1.800000 -1.400000 0.085000
			CHANNELS 3 Zrotation Yrotation Xrotation
			JOINT RightLeg
			{
				OFFSET -2.215000 -6.000000 0.000000
				CHANNELS 3 Zrotation Yrotation Xrotation
				JOINT RightFoot
				{
					OFFSET -2.500000 -6.900000 0.000000
					CHANNELS 3 Zrotation Yrotation Xrotation
					JOINT RightToeBase
					{
						OFFSET -0.200000 -0.500000 1.950000
						CHANNELS 3 Zrotation Yrotation Xrotation
						End Site
						{
							OFFSET 0.000000 0.000000 0.000000
						}
					}
				}
			}
		}
	}
	JOINT LowerBack
	{
		OFFSET 0.000000 0.000000 0.000000
		CHANNELS 3 Zrotation Yrotation Xrotation
		JOINT Spine
		{
			OFFSET -0.087000 1.940000 -0.288900
			CHANNELS 3 Zrotation Yrotation Xrotation
			JOINT Spine1
			{
				OFFSET 0.000000 1.950000 0.060000
				CHANNELS 3 Zrotation Yrotation Xrotation
				JOINT Neck
				{
					OFFSET 0.000000 0.000000 0.000000
					CHANNELS 3 Zrotation Yrotation Xrotation
					JOINT Neck1
					{
						OFFSET 0.000000 1.600000 0.340000
						CHANNELS 3 Zrotation Yrotation Xrotation
						JOINT Head
						{
							OFFSET 0.000000 1.667000 -0.240000
							CHANNELS 3 Zrotation Yrotation Xrotation
							End Site
							{
								OFFSET 0.000000 0.000000 0.000000
							}
						}
					}
				}
				JOINT LeftShoulder
				{
					OFFSET 0.000000 0.000000 0.000000
					CHANNELS 3 Zrotation Yrotation Xrotation
					JOINT LeftArm
					{
						OFFSET 2.700000 1.550000 -0.730000
						CHANNELS 3 Zrotation Yrotation Xrotation
						JOINT LeftForeArm
						{
							OFFSET 5.450000 0.000000 0.000000
							CHANNELS 3 Zrotation Yrotation Xrotation
							JOINT LeftHand
							{
								OFFSET 3.450000 0.000000 0.000000
								CHANNELS 3 Zrotation Yrotation Xrotation
								JOINT LeftHandIndex1
								{
									OFFSET 0.750000 0.000000 0.000000
									CHANNELS 3 Zrotation Yrotation Xrotation
									End Site
									{
										OFFSET 0.000000 0.000000 0.000000
									}
								}
							}
						}
					}
				}
				JOINT RightShoulder
				{
					OFFSET 0.000000 0.000000 0.000000
					CHANNELS 3 Zrotation Yrotation Xrotation
					JOINT RightArm
					{
						OFFSET -2.700000 1.550000 -0.730000
						CHANNELS 3 Zrotation Yrotation Xrotation
						JOINT RightForeArm
						{
							OFFSET -5.450000 0.000000 0.000000
							CHANNELS 3 Zrotation Yrotation Xrotation
							JOINT RightHand
							{
								OFFSET -3.450000 0.000000 0.000000
								CHANNELS 3 Zrotation Yrotation Xrotation
								JOINT RightHandIndex1
								{
									OFFSET -0.750000 0.000000 0.000000
									CHANNELS 3 Zrotation Yrotation Xrotation
									End Site
									{
										OFFSET 0.000000 0.000000 0.000000
									}
								}
							}
						}
					}
				}
			}
		}
	}
}
MOTION
Frames: 13
Frame Time: 0.016667
-0.676990 16.607650 -4.301990 -4.222888 3.735997 -2.403208 -15.301996 11.867577 5.307877 30.950391 -1.985035 -30.761377 -17.950431 15.999615 34.121063 0.034097 9.789358 1.023676 0.162570 -0.351300 0.241300 18.290296 -10.124375 2.191737 -20.470315 3.671852 -22.291746 10.186753 -10.528722 32.998854 -0.599766 -5.515008 2.332598 -0.225090 0.275540 0.318400 -3.548161 -1.539650 -9.078431 9.499468 -1.893457 31.210284 -6.818609 2.483867 3.329233 2.524404 -2.882414 -13.925448 -9.274750 1.111876 44.335142 1.881370 -2.108010 -20.177820 -16.220014 -18.696236 6.477607 -40.129192 -6.192523 -7.731296 -26.899999 -32.759798 3.256846 -3.561698 2.728847 1.040660 -0.070840 0.173430 0.096410 11.128776 23.155488 10.639828 54.155852 7.585869 -14.508432 30.931370 42.273826 5.347284 2.032736 -1.132951 -0.355890 0.371010 0.220370 -0.273080 
-0.697980 16.556260 -4.352590 -4.723176 4.253674 -3.124729 -15.290329 11.791743 5.352778 31.438703 -2.073459 -31.215418 -17.677394 16.102504 35.122204 0.034715 9.899294 0.972645 0.172310 -0.360430 0.271080 18.317760 -10.071946 2.233798 -20.500545 4.026164 -22.362756 10.785048 -11.154131 34.578731 -0.692272 -5.784976 2.226885 -0.244190 0.223840 0.322720 -3.612366 -1.493218 -9.130632 10.391932 -2.673447 34.250790 -7.893332 2.518328 2.409049 2.771300 -2.740645 -14.546700 -9.129777 0.705717 44.179895 2.804770 -2.191930 -23.639690 -15.558609 -19.808407 6.818742 -37.526397 -5.411195 -8.311291 -30.207624 -34.495362 4.403152 -3.493915 2.747283 1.114170 -0.127870 0.218000 0.081080 9.940916 24.206692 11.190544 52.828304 6.896936 -15.174287 36.294711 44.274110 7.288554 2.045197 -1.137679 -0.359180 0.362360 0.217180 -0.298860 
-0.745640 16.463090 -4.421210 -5.242207 5.028045 -4.052550 -15.312462 11.679938 5.398214 32.108164 -2.227535 -31.975277 -17.176664 16.243514 36.581601 0.048224 10.040413 0.919683 0.152570 -0.389180 0.302090 18.330896 -9.912492 2.347117 -20.915908 4.617664 -22.865637 12.191048 -12.435472 37.222420 -0.838758 -6.318937 2.035506 -0.279800 0.162130 0.308730 -3.606139 -1.526456 -9.221202 10.720083 -3.520458 38.952039 -8.892262 2.644350 0.344797 3.137194 -2.127362 -15.135862 -8.010714 -0.436708 43.328295 2.937030 -2.020200 -28.503650 -14.705968 -20.662887 6.936129 -32.933017 -4.343735 -8.532497 -35.783659 -35.811367 6.408844 -3.429530 2.741647 1.192430 -0.192700 0.267360 0.048640 8.327162 24.807541 11.719740 50.343986 5.418530 -15.632057 46.111116 46.760959 11.194355 2.090429 -1.137668 -0.375430 0.364230 0.217270 -0.331410 
-0.798690 16.360730 -4.490110 -5.462540 5.574312 -5.386074 -15.367974 11.695320 5.381179 32.484635 -2.447559 -32.276417 -16.384952 16.367013 38.400437 0.113612 10.152912 0.887240 0.182820 -0.364780 0.364870 18.302018 -9.686433 2.487184 -21.592735 5.330741 -23.445960 13.555325 -13.893362 40.424074 -1.034967 -6.962566 1.818078 -0.304230 0.074430 0.305990 -3.487654 -1.832065 -9.301874 9.961682 -4.129122 44.897662 -8.924391 2.722911 -3.146019 3.515470 -2.038814 -15.582654 -8.035923 -1.249268 42.627552 2.706180 -1.775670 -33.446960 -15.149578 -20.718542 6.739299 -27.842260 -2.620110 -8.443394 -41.144701 -36.186498 8.365931 -3.332645 2.778699 1.253450 -0.272590 0.336260 0.043360 8.189126 25.248319 12.050206 45.481176 3.437101 -15.136006 57.653025 46.926683 15.653642 2.171484 -1.165730 -0.352750 0.338420 0.166990 -0.350050 
-0.855470 16.245870 -4.538570 -5.784687 5.621190 -6.072252 -15.449061 11.570684 5.468147 33.462659 -2.529330 -33.453680 -15.727146 17.028610 41.001490 0.158821 10.562491 0.780604 0.140420 -0.429790 0.387370 18.290558 -9.351358 2.653311 -22.162294 6.182307 -24.902466 14.783314 -15.524690 43.843551 -1.200968 -7.677603 1.600742 -0.337390 0.077930 0.285570 -3.348602 -2.102463 -9.443068 9.052979 -4.211510 49.668284 -8.769347 3.133236 -7.103597 3.816517 -1.440509 -15.735168 -6.745140 -2.375880 41.026271 1.328970 -1.507300 -35.690790 -16.468937 -20.464306 6.311456 -22.571995 -0.908327 -7.752329 -45.236009 -35.467371 9.737807 -3.334332 2.735067 1.302510 -0.280880 0.337860 0.023500 9.058804 25.034193 12.184506 40.974369 1.277981 -14.224145 67.471050 45.460566 19.012951 2.205890 -1.156794 -0.405350 0.371710 0.178920 -0.381360 
-0.911270 16.141340 -4.557290 -5.953535 5.365874 -6.690770 -15.529299 11.364537 5.627138 34.920910 -2.451094 -34.608614 -15.819274 18.274308 43.750756 0.284823 11.126738 0.616468 0.115860 -0.464440 0.390610 18.297434 -8.968730 2.817204 -22.865937 6.982947 -26.556686 15.812223 -17.329658 47.522923 -1.386708 -8.463352 1.360945 -0.359070 0.079890 0.278290 -3.235877 -2.354402 -9.629679 8.172401 -4.028355 53.256447 -8.243978 3.578822 -10.584023 3.912959 -1.583788 -16.049489 -7.089691 -2.663686 40.402231 1.046850 -1.646620 -35.793990 -17.954323 -20.195298 5.997819 -19.015853 0.695546 -7.213819 -44.763711 -35.290933 10.008706 -3.327329 2.718827 1.312440 -0.285230 0.337300 0.013500 10.737454 25.226243 12.476625 36.344372 -0.885839 -13.210924 75.463480 43.410416 21.353652 2.228904 -1.181284 -0.419180 0.377570 0.185680 -0.387100 
-0.963660 16.034410 -4.547300 -5.963356 5.362156 -7.742146 -15.570916 11.220292 5.712568 36.105938 -2.421010 -35.218235 -15.348024 19.266645 46.571972 0.409150 11.570348 0.481501 0.140600 -0.429390 0.396190 18.312209 -8.723923 2.934734 -23.617016 7.372949 -27.424163 16.492278 -19.074661 50.861885 -1.592019 -9.193710 1.143297 -0.350300 0.061350 0.279970 -3.193644 -2.497353 -9.774745 7.690409 -3.952529 55.420987 -7.758170 3.821600 -12.643514 3.861300 -1.985021 -16.336196 -8.275683 -2.346227 41.438406 1.659850 -2.013770 -35.808320 -18.934192 -20.179267 5.762830 -17.412958 0.965461 -6.700483 -40.104893 -33.562910 8.382655 -3.299627 2.685422 1.319980 -0.306110 0.362890 0.027290 12.205095 25.564830 12.691222 33.159802 -2.106119 -12.419561 80.590566 41.001614 21.977208 2.234770 -1.218269 -0.399490 0.375930 0.166820 -0.375160 
-1.004980 15.936460 -4.505210 -6.012475 5.154973 -9.715335 -15.567155 11.147114 5.728665 37.350828 -2.296697 -34.351049 -15.224810 20.321094 49.000364 0.561919 11.938119 0.347285 0.245700 -0.298720 0.461280 18.335682 -8.655896 2.965947 -23.957436 7.615922 -27.041219 16.564502 -20.517455 54.085199 -1.826125 -9.815075 0.952070 -0.309390 -0.030730 0.298420 -3.235095 -2.463213 -9.856651 7.905809 -4.268096 56.675930 -7.872836 3.813042 -13.099982 3.862392 -2.265156 -16.343785 -9.647615 -1.555768 44.141997 2.403340 -2.065440 -37.796510 -20.030591 -20.131303 5.467458 -18.164272 -0.498987 -6.094359 -29.969716 -29.595922 4.918350 -3.237056 2.632439 1.338140 -0.372480 0.442960 0.045530 13.488865 25.532041 12.634169 32.299457 -2.438569 -12.250979 82.509441 40.184261 22.192415 2.257906 -1.258894 -0.323980 0.340210 0.099070 -0.364460 
-1.040490 15.829130 -4.449280 -5.463826 5.013051 -11.971064 -15.539857 11.168916 5.646742 37.714804 -2.376997 -33.118414 -14.310224 21.150181 52.038907 0.654066 12.329408 0.199942 0.316030 -0.210620 0.497900 18.351030 -8.715699 2.960990 -24.817701 7.508053 -26.108541 16.014876 -21.775166 57.346329 -2.014514 -10.412557 0.769693 -0.257460 -0.072580 0.307900 -3.297925 -2.366894 -9.873420 8.117847 -4.363337 56.330715 -8.089644 3.575592 -11.643502 3.829334 -2.248604 -16.493261 -10.461104 -0.574115 47.380670 2.705440 -2.240910 -37.805200 -21.739465 -20.742111 5.571399 -19.542155 -1.675991 -5.389430 -19.148202 -25.278003 1.968417 -3.230867 2.530874 1.353860 -0.396520 0.483530 0.050030 15.179398 25.882172 12.582902 31.938057 -2.421170 -12.546570 83.711195 40.312028 22.535771 2.245110 -1.267500 -0.293720 0.344590 0.081020 -0.365500 
-1.069970 15.724070 -4.365380 -5.106319 5.363975 -14.326919 -15.487408 11.284686 5.477283 37.724684 -2.381535 -31.392495 -12.721039 21.381377 54.703740 0.713854 12.559924 0.096076 0.383210 -0.104550 0.518770 18.366689 -8.873452 2.916719 -25.529800 7.154915 -24.418174 15.326707 -22.925416 60.165075 -2.186047 -10.926106 0.612654 -0.194490 -0.100720 0.321000 -3.400155 -2.252307 -9.822898 9.117070 -4.992998 54.080526 -8.741091 2.811162 -8.183388 3.919954 -2.140659 -16.805987 -11.041737 0.915504 51.342022 2.608290 -2.079920 -36.846640 -23.477351 -21.747317 6.215726 -22.227540 -1.971904 -5.006622 -8.068215 -21.702512 -0.204323 -3.236627 2.465821 1.348140 -0.404210 0.524410 0.057280 16.381718 26.464960 12.467511 33.221140 -1.783246 -13.456130 83.133943 41.396783 22.539146 2.234458 -1.261714 -0.255170 0.356210 0.068790 -0.352390 
-1.082240 15.648160 -4.279730 -4.816913 5.867869 -16.957442 -15.399166 11.460967 5.235557 37.347601 -2.378609 -29.399678 -10.577172 21.113986 57.352908 0.726037 12.703436 0.014415 0.491180 0.031500 0.554400 18.402467 -9.122213 2.819049 -26.293020 6.644800 -21.947883 14.486347 -23.731540 62.298967 -2.327719 -11.279817 0.499132 -0.100300 -0.127320 0.322360 -3.585761 -2.099316 -9.673238 10.945912 -6.249723 51.143591 -9.702606 1.616293 -3.409514 4.050588 -3.277640 -17.079320 -14.388055 3.531366 55.106028 3.883490 -2.425640 -36.483640 -25.038178 -22.553497 6.775195 -26.149325 -2.241762 -4.993123 3.238641 -18.268763 -1.959740 -3.232570 2.459986 1.363330 -0.432260 0.562800 0.081750 17.411856 27.476901 12.528329 35.043602 -0.992723 -14.934863 82.012154 43.845355 23.074639 2.213361 -1.255394 -0.227310 0.389420 0.044300 -0.340110 
-1.111920 15.568160 -4.155590 -4.768643 5.923686 -18.863319 -15.340870 11.587392 5.049057 37.771880 -1.723027 -27.607641 -8.539407 21.029010 59.452587 0.770310 12.829575 -0.040076 0.588990 0.166690 0.570400 18.441434 -9.290063 2.706388 -26.391580 6.413431 -19.885358 13.393372 -24.263027 64.431559 -2.447595 -11.587587 0.416291 -0.009800 -0.132450 0.312800 -3.734769 -1.991168 -9.514166 12.842306 -6.874800 46.986457 -10.136881 0.728445 0.331599 4.022156 -4.819870 -16.482287 -18.465300 6.578842 57.578787 5.255320 -2.663970 -35.402100 -26.744094 -21.637979 6.504301 -30.703707 -2.410011 -5.737811 11.536168 -16.535112 -3.227587 -3.231222 2.511934 1.346750 -0.446920 0.580340 0.120620 19.023297 26.912359 12.328988 37.251661 -0.425830 -15.665708 82.672691 46.292741 24.852307 2.217359 -1.289379 -0.198170 0.420000 0.008830 -0.310950 
-1.131940 15.494120 -3.994060 -5.015824 5.272501 -20.242613 -15.299342 11.690270 4.868194 38.954292 -0.419483 -25.402733 -6.678117 21.132551 60.768524 0.820964 12.931615 -0.068018 0.648690 0.243650 0.566970 18.488406 -9.395932 2.597786 -26.068748 6.523366 -18.148461 12.249931 -24.625716 66.534299 -2.551025 -11.866281 0.360329 0.045260 -0.124520 0.298740 -3.872455 -1.901078 -9.331515 15.537802 -7.287706 42.283255 -10.698600 -0.090553 2.010662 4.203053 -6.456898 -15.158005 -22.755820 9.921171 59.780387 5.909020 -2.887810 -34.242750 -27.802178 -18.071957 5.269156 -37.016301 -1.895837 -7.414490 17.332096 -17.944949 -4.646896 -3.206946 2.532582 1.341440 -0.457200 0.582270 0.158490 19.548436 23.871665 11.603298 40.902236 0.241563 -15.315009 84.962340 48.595538 28.154578 2.250832 -1.317100 -0.189550 0.448710 -0.013990 -0.289050 
